<svg width="262" height="256" viewBox="0 0 262 256" fill="none" xmlns="http://www.w3.org/2000/svg">
<path fill-rule="evenodd" clip-rule="evenodd" d="M80.2621 1.41402C72.0873 3.44598 58.357 14.5544 55.9268 21.1042C54.7002 24.4068 53.2134 26.0099 51.8171 25.5341C38.9217 21.1349 24.5362 23.8623 13.3136 32.8319C2.2623 41.6668 -0.00493951 48.1097 0.016465 70.6252C0.0296371 86.1094 0.513709 89.2174 3.92033 95.7217C8.55853 104.579 17.4315 111.493 27.3139 113.954C37.6539 116.527 51.2293 115.175 58.581 110.836L64.6582 107.25L73.9033 111.431C81.8823 115.04 84.6402 115.542 94.0401 115.094C102.348 114.699 106.448 113.68 111.328 110.796L117.725 107.016L125.958 110.833C130.485 112.932 134.47 114.788 134.812 114.958C135.153 115.128 132.19 118.476 128.226 122.396C124.262 126.317 118.965 132.881 116.454 136.983C111.641 144.85 105.376 164.225 105.376 171.246V175.403H117.44H129.504L131.549 165.538C136.848 139.967 158.328 121.216 187.565 116.637L197.581 115.068V104.245V93.4219H168.255C141.069 93.4219 138.665 93.2052 135.344 90.453C130.41 86.3656 129.038 80.5552 131.928 75.9774C136.38 68.9241 139.072 68.5801 189.76 68.5567L237.097 68.5347L237.072 110.623C237.047 155.21 236.107 162.743 228.726 177.599C215.832 203.551 187.794 224.687 157.004 231.667C144.194 234.572 119.304 234.594 105.564 231.714C88.8503 228.211 70.0275 218.662 56.6529 206.899C36.7467 189.393 26.7606 169.309 25.1586 143.562L24.225 128.557H12.1117H0V139.408C0 192.952 40.8975 239.641 99.4653 252.959C117.266 257.007 144.463 257.014 162.329 252.978C206.885 242.91 241.272 214.287 256.407 174.671L260.88 162.96L261.44 104.768L262 46.5754H248.899H235.799L235.213 35.1156C234.477 20.7323 228.879 11.6412 216.601 4.8909C209.765 1.13441 206.896 0.460989 197.709 0.463917C188.994 0.466845 185.339 1.23981 178.993 4.41951L171.108 8.37071L163.602 4.82063C159.472 2.86918 153.466 0.832833 150.255 0.297027C142.974 -0.916589 129.568 1.73462 123.47 5.59652L118.858 8.51564L110.452 4.63764C101.067 0.308739 89.6258 -0.913661 80.2621 1.41402ZM100.564 25.9674L105.376 30.2465V58.2417C105.376 86.0114 105.343 86.2646 101.334 89.8279C98.8627 92.0267 95.4001 93.4219 92.4133 93.4219C78.861 93.4219 77.3857 89.8249 77.3857 56.7836V30.2465L82.1984 25.9674C85.0996 23.3879 88.7466 21.6883 91.381 21.6883C94.0154 21.6883 97.6624 23.3879 100.564 25.9674ZM152.998 25.4785C157.603 28.9231 158.064 30.0562 158.064 37.922V46.5754H149.409C144.649 46.5754 138.351 47.1888 135.413 47.9369L130.074 49.2984V39.7725C130.074 31.1966 130.553 29.8205 134.887 25.9674C140.855 20.6606 146.359 20.5113 152.998 25.4785ZM203.04 23.3909C209.025 26.2265 210.646 29.3477 210.7 38.1577L210.753 46.5754H196.757H182.762L182.787 39.6217C182.815 31.2859 185.5 26.0553 191.027 23.568C196.13 21.2725 198.493 21.2374 203.04 23.3909ZM47.8754 49.3906C52.6173 53.6068 52.6881 53.9084 52.6881 69.9533C52.6881 85.2882 52.4527 86.4447 48.646 89.8279C44.6697 93.3648 37.9091 94.4671 32.1809 92.5128C26.815 90.6814 24.6976 83.8842 24.6976 68.4952C24.6976 54.0621 24.8243 53.557 29.5103 49.3906C32.4114 46.8111 36.0584 45.1115 38.6929 45.1115C41.3273 45.1115 44.9743 46.8111 47.8754 49.3906ZM171.236 174.61V185.651H184.481H197.725L197.241 175.037L196.757 164.424L183.997 163.996L171.236 163.569V174.61Z" fill="black"/>
</svg>
