<svg width="262" height="256" viewBox="0 0 262 256" fill="none" xmlns="http://www.w3.org/2000/svg">
<path fill-rule="evenodd" clip-rule="evenodd" d="M74.8631 1.94595C61.4147 5.7539 52.6198 14.0371 52.6478 22.8681C52.661 26.9433 67.4811 63.7033 69.6415 65.0218C71.2668 66.0138 92.1533 61.8712 92.1533 60.5576C92.1533 59.8049 88.8187 51.6131 84.7432 42.354C80.6677 33.096 77.3331 24.2881 77.3331 22.7826C77.3331 16.222 92.6242 12.5698 99.9849 17.3727C102.521 19.027 108.826 31.9935 123.48 65.6862C134.496 91.0152 143.253 111.868 142.942 112.026C142.632 112.184 139.688 112.564 136.401 112.874L130.425 113.436L129.688 105.227C128.599 93.1348 121 85.6817 105.791 81.7913C98.2476 79.8627 82.7359 80.123 74.8631 82.3119C67.3757 84.3933 56.4944 91.2655 55.0239 94.8443C54.0787 97.1417 53.565 97.2221 42.8649 96.7548C29.0805 96.1528 21.4136 97.5889 12.6401 102.417C0.039702 109.35 0.0133133 109.45 0.000139895 150.284C-0.00974018 178.976 0.500769 187.816 2.46855 192.997C11.9847 218.049 38.7679 238.298 76.2217 248.756C142.219 267.184 220.143 249.241 250.279 208.676C260.358 195.109 260.594 193.893 261.326 151.54L262 112.597H243.768C228.694 112.597 225.534 112.336 225.534 111.096C225.534 110.27 233.763 90.7107 243.821 67.6298C263.62 22.1927 263.984 20.6651 256.984 12.2914C250.496 4.53082 238.07 0.0364518 223.099 0.0364518C207.669 0.0364518 194.522 5.15192 188.308 13.5748C187.071 15.2492 179.706 31.3081 171.935 49.2624C164.166 67.2158 157.554 82.0607 157.242 82.2516C156.456 82.731 156.486 82.7943 140.883 46.8987C130.913 23.9595 125.635 13.5598 122.292 10.2603C113.124 1.20829 91.0994 -2.65193 74.8631 1.94595ZM233.018 17.5787C235.241 18.9355 237.061 21.0118 237.061 22.1927C237.061 23.3736 228.421 44.1972 217.861 68.468L198.66 112.597H184.927C175.026 112.597 171.194 112.246 171.194 111.338C171.194 110.369 193.911 57.4673 208.979 23.3495C210.029 20.9716 212.331 18.1446 214.095 17.0682C218.74 14.2331 227.945 14.4813 233.018 17.5787ZM97.8425 96.1357C103.98 97.5729 105.327 101.783 105.327 119.516C105.327 128.905 104.617 137.725 103.751 139.116C101.73 142.359 93.497 145.001 88.025 144.163C85.7378 143.812 82.3967 142.385 80.6002 140.991C77.6065 138.667 77.3331 136.883 77.3331 119.632C77.3331 102.109 77.5686 100.624 80.7467 98.1598C84.1701 95.5036 91.4583 94.6403 97.8425 96.1357ZM45.1488 112.216C50.3226 113.428 52.633 118.169 52.633 127.574C52.633 137.812 50.759 141.242 43.9961 143.377C38.6214 145.073 33.7571 144.475 28.3444 141.451C24.9243 139.541 24.6394 138.515 24.6394 128.135C24.6394 118.278 25.061 116.56 28.053 114.24C31.4764 111.584 38.7646 110.72 45.1488 112.216ZM237.033 155.058C237 186.732 235.752 192.061 225.328 205.057C211.284 222.568 182.228 235.962 149.892 239.832C96.0559 246.276 41.5969 225.102 27.8916 192.398C25.4578 186.588 24.6394 181.29 24.6394 171.335V158.036L31.6197 158.993C39.6851 160.098 50.3046 158.818 59.088 155.68L64.7196 153.668L73.0518 156.436C84.6707 160.296 98.19 160.309 109.437 156.473L117.441 153.743L126.049 156.494L134.657 159.244L127.731 163.945C115.172 172.472 105.426 186.764 105.351 196.766L105.327 200.032H117.677H130.027V197.2C130.027 192.619 134.876 183.815 140.24 178.659C150.414 168.882 169.802 161.194 187.028 160.109L195.894 159.55V152.219V144.886L166.931 144.57L137.967 144.254L133.997 141.434C128.808 137.749 128.836 133.332 134.069 130.139L138.11 127.672H187.587H237.061L237.033 155.058ZM169.547 200.534V208.072H182.721H195.894V200.534V192.997H182.721H169.547V200.534Z" fill="black"/>
</svg>
