<svg width="263" height="256" viewBox="0 0 263 256" fill="none" xmlns="http://www.w3.org/2000/svg">
<g clip-path="url(#clip0_3_25)">
<mask id="mask0_3_25" style="mask-type:luminance" maskUnits="userSpaceOnUse" x="0" y="0" width="263" height="256">
<path d="M263 0H0V256H263V0Z" fill="white"/>
</mask>
<g mask="url(#mask0_3_25)">
<path fill-rule="evenodd" clip-rule="evenodd" d="M122.18 0.833198C113.111 2.49954 105.024 6.87682 100.507 12.5639C98.1921 15.4787 96.1166 16.911 94.4672 16.7332C93.0855 16.5836 88.1195 16.3988 83.4316 16.3204C67.2968 16.0533 52.925 23.7853 49.4753 34.5879C48.5766 37.4013 47.8438 45.4437 47.8453 52.4596L47.8483 65.2168L38.5757 64.8663C25.9789 64.3902 18.882 66.0354 11.163 71.2193C0.214108 78.5737 -0.0101881 79.7338 0.000279306 128.93C0.00626069 161.304 0.540102 174.051 2.19545 181.428C9.99068 216.165 48.0667 244.468 99.4318 253.709C116.441 256.77 146.797 256.763 163.732 253.694C211.284 245.078 246.596 221.105 258.903 189.08C261.838 181.441 262.172 177.456 262.789 142.558C263.263 115.85 262.948 102.829 261.741 99.1905C254.457 77.2328 209.633 73.9443 195.701 94.3451C193.426 97.6748 192.951 100.983 192.924 113.661L192.891 128.96L188.779 129.569C151.944 135.033 124.374 154.647 121.533 177.408L120.681 184.241H131.927H143.174L143.846 178.791C145.327 166.804 160.838 152.939 179.024 147.347C185.425 145.378 191.013 144.564 201.085 144.136L214.573 143.562L214.977 122.01C215.363 101.522 215.541 100.344 218.603 98.1549C223.188 94.8765 231.568 95.0121 236.369 98.4422L239.994 101.034L240.443 134.853C240.932 171.782 239.854 181.149 233.796 192.597C225.829 207.653 206.841 223.202 186.571 231.269C167.077 239.027 140.859 242.693 118.943 240.723C93.9723 238.479 75.6169 232.613 57.2496 221.007C39.0243 209.49 27.4832 194.475 24.026 177.784C21.9071 167.549 21.8637 88.9323 23.9752 85.2019C26.1015 81.4463 29.6605 79.8503 35.9932 79.8131C39.6912 79.791 42.3425 80.4981 44.5915 82.1052C47.7556 84.3682 47.8424 85.1235 47.8424 110.229V136.029H59.0574H70.2725V87.7842C70.2725 34.6974 70.4759 33.3645 78.7721 31.9031C84.6503 30.8675 88.4141 31.4059 92.3289 33.8426L95.6934 35.9368V77.9469V119.958H106.908H118.124L118.133 72.4989C118.137 42.0699 118.711 23.6598 119.731 21.1929C121.7 16.4279 128.718 13.9269 135.597 15.538C144.437 17.6081 144.253 16.4992 144.72 70.4901L145.147 119.958H156.309H167.47V77.9469V35.9368L170.834 33.8426C174.749 31.4059 178.513 30.8675 184.391 31.9031C191.412 33.1395 192.891 37.2707 192.891 55.6427V71.7456H204.106H215.321V55.724C215.321 36.9011 213.763 30.978 207.319 25.303C198.942 17.9255 182.102 14.2041 169.375 16.9171C166.636 17.5006 165.737 17.0627 164.013 14.2985C157.326 3.5793 139.124 -2.28052 122.18 0.833198ZM179.433 184.743V192.277H191.395H203.358V184.743V177.21H191.395H179.433V184.743Z" fill="black"/>
</g>
</g>
<defs>
<clipPath id="clip0_3_25">
<rect width="263" height="256" fill="white"/>
</clipPath>
</defs>
</svg>
